<svg xmlns="http://www.w3.org/2000/svg" height="1000" width="1000"><path d="M500.1 62.5C260.5 62.4 67.5 254.6 62.6 490.3c-5.1 244.9 189 443.6 429.9 447.2 251.6 3.7 440.5-197.9 444.9-428.2C942.1 262.6 743.2 62 500.1 62.5zm3.3 787.3c-196 1.4-353.2-155.3-353.2-349.4 0-193.5 156.5-350.5 349.4-350.3 193.6.1 349.5 156.6 350.2 349.5.8 186.1-149.4 348.8-346.4 350.2zm26.2-611.9H471c-4 0-7.3 3.3-7.3 7.3v209.6c0 4-3.3 7.3-7.3 7.3H321.9c-4 0-7.3 3.3-7.3 7.3v59.5c0 4 3.3 7.3 7.3 7.3h207.7c4 0 7.3-3.3 7.3-7.3V245.3c0-4.1-3.3-7.4-7.3-7.4z"/></svg>