<svg xmlns="http://www.w3.org/2000/svg" height="1000" width="1000"><path d="M500 500c105.7 0 191.4-97.9 191.4-218.7S605.6 62.5 500 62.5c-105.7 0-191.4 97.9-191.4 218.8S394.3 500 500 500zM395.3 221.7C408.4 256 450 281.3 500 281.3s136.8-5.9 136.8 27.3c0 75.5-61.2 136.8-136.8 136.8s-136.7-61.2-136.7-136.8c0-33.2 12.3-63.2 32-86.9zm432.8 497.1c0-90.6-73.4-164.1-164.1-164.1H538.6l12.2 11.4c6.5 6 6.5 15.7 0 21.7l-26.2 24.3c-6.5 6-9.2 16.9-6.1 24.3l50.6 122.2c3.1 7.4 1.8 19.1-2.9 25.9l-57.7 84.9c-4.7 6.9-12.2 6.9-17 0l-57.7-84.9c-4.7-6.9-6-18.5-2.9-25.9l50.5-122.1c3.1-7.4.3-18.3-6.1-24.3l-26.2-24.3c-6.5-5.9-6.5-15.7 0-21.7l12.3-11.4H335.9c-90.6 0-164.1 73.4-164.1 164.1V883c0 30.3 24.5 54.7 54.7 54.7h546.9c30.3 0 54.7-24.4 54.7-54.7V718.8z"/></svg>