<svg xmlns="http://www.w3.org/2000/svg" height="1000" width="1000"><path d="M793.4 197.1c-27.7 0-50.4 22.7-50.4 50.4v218.9c0 9.2-7.5 16.7-16.7 16.7-9.4 0-17-7.6-17-16.7V146.6c0-27.9-22.5-50.4-50.4-50.4-27.7 0-50.4 22.5-50.4 50.4v286.1c0 9.2-7.6 16.7-16.7 16.7-9.4 0-17-7.5-17-16.7V112.9c0-27.7-22.5-50.4-50.4-50.4S474 85.2 474 112.9v319.8c0 9.2-7.6 16.7-17 16.7-9.2 0-16.7-7.5-16.7-16.7V180.3c0-27.9-22.7-50.4-50.4-50.4-27.9 0-50.4 22.5-50.4 50.4V601l-68.2-93.4c-20.2-31.1-59.7-41.6-88.5-23.6-28.8 18.2-35.9 57.9-15.9 89.1 0 0 109.9 166.2 156.8 237.4 46.8 71.3 122.8 127.1 264.7 127.1 234.9 0 256-181.4 256-235.6V247.5c-.4-27.8-23.1-50.4-51-50.4z"/></svg>