<svg xmlns="http://www.w3.org/2000/svg" height="1000" width="1000"><path d="M936.2 478.5c-1.3-40.9-23.8-72-63.6-86.6-11.6-4.3-17.4-10.6-21.4-21.3-20.7-54.6-41.8-109-62.9-163.5-20.6-53.2-50-73.2-107.5-73.3-121 0-241.9-.1-362.9 0-56.3 0-86.2 20.4-106.4 72.3-21.8 56.1-43.1 112.4-65.3 168.3-2.3 5.8-7.7 12.4-13.3 14.7-48.6 19.9-70.3 51.6-70.4 104.6v222.8c0 2 1.6 3.6 3.6 3.7 17.8.1 34.1.7 50.4-.2 13.2-.7 18.2 3.1 17.8 17.1-.8 25.3-.9 50.8.8 76.2 2.4 35.3 38.4 60 72.9 51.5 32.3-8 49.7-30.4 50.3-65.9.4-24.6.1-49.3.1-74.2 0-2 1.6-3.6 3.6-3.6h475.8c2 0 3.6 1.6 3.6 3.6 0 24.8-.5 48.8.1 72.9 1.3 50.1 38.8 79.5 82.8 65.6 23.2-7.4 39.5-27.3 40.4-52.3.9-28.3.3-56.7.2-87 0-2 1.6-3.6 3.6-3.6h64.8c2 0 3.6-1.6 3.6-3.6.1-81 1.7-159.7-.7-238.2zM197.8 584.1c-36.4 0-66.6-31.1-65.8-67.7.8-35.9 31.1-66.7 65.5-66.7 36.1 0 65.1 30.4 64.9 68.3-.1 37-28.5 66.1-64.6 66.1zM213.4 386c-2 0-3.4-1.6-3.2-3.6.2-2.3.4-4.4 1.2-6.4 17.9-48.5 35.6-97.2 54.1-145.5 11.1-29.1 21-35.6 51.3-35.6h155.9v8.2c0 2 1.6 3.6 3.6 3.6h47.2c2 0 3.6-1.6 3.6-3.6v-8.2c52 0 104.1-.1 156.1-.3 23.2-.1 40 7.4 48.4 29.7 19.4 51.9 38.5 103.9 57.7 155.8.3.8.4 1.8.4 3 0 1.7-1.6 3-3.6 3h-36.3c-11.6-37.9-46.7-65.5-88.2-65.5S585 348.1 573.4 386h-360zm448.3-55.9c36.2 0 67 23.4 78.3 55.9H583.5c11.2-32.6 42-55.9 78.2-55.9zM802.9 584c-36.4.3-65.2-28.4-65.6-65.2-.4-38.2 27.9-68.8 64-69.2 35.3-.4 66.6 31.5 66.4 67.6-.2 36.6-29.3 66.5-64.8 66.8z"/></svg>