<svg version="1" xmlns="http://www.w3.org/2000/svg" width="88" height="56" viewBox="0 0 880 560"><path d="M122 537c-32-34-30-100 3-132 37-38 108-31 142 14 22 28 16 89-12 116-33 34-102 35-133 2zm86-39c30-30-1-73-36-51-23 14-25 29-7 47 20 19 27 20 43 4zM662 553c-7-3-19-18-28-35-50-96 70-185 147-109 17 18 29 40 29 56 0 33-24 81-45 89-19 7-84 7-103-1zm78-58c6-8 9-23 5-35-8-26-43-24-59 3-9 15-7 21 8 33 25 18 31 18 46-1z"/><path d="M7 443c-13-12-7-64 8-69 13-5 15-36 15-190V0h273c199 0 276 3 285 12s12 73 12 225v213H302l-20-34c-28-48-88-66-136-43-19 9-42 30-52 46-14 24-25 31-49 31-18 0-35-3-38-7zM820 437c0-7-14-26-31-43-37-36-104-41-138-10l-21 19V129l92 3 93 3 32 55c32 52 33 59 33 157v103h-30c-18 0-30-5-30-13zm0-203c0-3-8-19-17-35-16-26-22-29-70-29h-53v70h70c39 0 70-3 70-6z"/></svg>