<svg xmlns="http://www.w3.org/2000/svg" width="512" height="512" viewBox="0 0 45.682 45.682"><path d="M32.102 19.679c1.211-.259 2.328-1.26 2.51-3.48.15-1.817-.316-2.753-1.004-3.23 1.91-7.785-3.358-9.309-3.358-9.309s-3.937-6.679-11.618-1.992c-.977.596-2.496 1.738-3.401 2.917-1.453 1.546-2.442 4.059-2.597 8.129-.938.358-1.675 1.264-1.492 3.484.192 2.321 1.403 3.309 2.677 3.511 1.72 4.189 5.116 7.641 9.135 7.641 4.028 0 7.431-3.468 9.148-7.671zm-9.148 5.718c-4.647 0-8.389-6.31-8.389-11.535 0-.716.023-1.38.067-1.996 6.797.297 10.817-2.428 13.005-4.792 2.075 2.068 3.153 4.68 3.704 6.619l.001.168c.001 5.226-3.74 11.536-8.388 11.536zM20.292 33.297l.538-2.227c.062-.257.195-.477.375-.646a3.139 3.139 0 0 1-.162-.123l-4.806-3.979-2.925.684c-4.953 1.165-8.443 5.348-8.443 10.146v6.3c0 1.24 1.103 2.229 2.423 2.229h12.381l1.888-10.762a1.313 1.313 0 0 1-1.269-1.622zM32.42 27.006l-2.885-.684-4.801 3.979a3.093 3.093 0 0 1-.16.123c.181.169.314.389.377.646l.537 2.227a1.314 1.314 0 0 1-1.269 1.623l1.888 10.762h12.381c1.32 0 2.324-.988 2.324-2.229v-6.3c.002-4.799-3.439-8.982-8.392-10.147z"/></svg>