<svg version="1" xmlns="http://www.w3.org/2000/svg" width="49" height="76" viewBox="0 0 490 760"><path d="M2 563l3-198 55-10c45-9 56-15 58-33 4-30 20-28 28 3 3 14 13 25 23 25 9 0 26 3 38 6 22 6 23 4 23-70 0-73 1-77 26-86 14-6 36-10 49-10 17 0 25-6 27-22 4-29 22-30 26-2 3 18 12 23 52 28l49 7 15 53c18 62 20 88 6 102-5 5-11 95-12 204l-3 195-233 3-232 2 2-197z"/><path d="M65 316c-31-22-22-80 22-138l38-49 42 48c50 57 61 94 39 128-17 25-51 35-43 13 5-14-23-68-35-68-11 0-28 36-28 59 0 24-9 26-35 7zM282 158c-22-22-14-72 20-116 18-23 38-42 44-42 7 0 26 19 43 42 32 44 41 94 19 116-17 17-41 15-35-3 3-7-2-24-12-36l-18-23-17 27c-10 14-15 31-11 37 9 14-18 13-33-2z"/></svg>