<svg xmlns="http://www.w3.org/2000/svg" height="1000" width="1000"><path d="M854.6 0H145.7c-23.2 0-42.2 20.4-42.2 45.3v909.5c0 24.9 19 45.3 42.2 45.3h708.9c23.2 0 42.2-20.4 42.2-45.3V45.3c0-24.9-19-45.3-42.2-45.3zM361.2 878.3c0 11.6-8.9 21.1-19.7 21.1H227.8c-10.8 0-19.7-9.5-19.7-21.1v-79.7c0-11.6 8.9-21.1 19.7-21.1h113.7c10.8 0 19.7 9.5 19.7 21.1v79.7zm0-172.7c0 11.6-8.9 21.1-19.7 21.1H227.8c-10.8 0-19.7-9.5-19.7-21.1v-79.7c0-11.6 8.9-21.1 19.7-21.1h113.7c10.8 0 19.7 9.5 19.7 21.1v79.7zm0-164.7c0 11.6-8.9 21.1-19.7 21.1H227.8c-10.8 0-19.7-9.5-19.7-21.1v-79.7c0-11.6 8.9-21.1 19.7-21.1h113.7c10.8 0 19.7 9.5 19.7 21.1v79.7zm215.5 337.4c0 11.6-8.9 21.1-19.7 21.1H443.3c-10.8 0-19.7-9.5-19.7-21.1v-79.7c0-11.6 8.9-21.1 19.7-21.1H557c10.8 0 19.7 9.5 19.7 21.1v79.7zm0-172.7c0 11.6-8.9 21.1-19.7 21.1H443.3c-10.8 0-19.7-9.5-19.7-21.1v-79.7c0-11.6 8.9-21.1 19.7-21.1H557c10.8 0 19.7 9.5 19.7 21.1v79.7zm0-164.7c0 11.6-8.9 21.1-19.7 21.1H443.3c-10.8 0-19.7-9.5-19.7-21.1v-79.7c0-11.6 8.9-21.1 19.7-21.1H557c10.8 0 19.7 9.5 19.7 21.1v79.7zm215.5 337.4c0 11.6-8.9 21.1-19.7 21.1H658.8c-10.8 0-19.7-9.5-19.7-21.1v-79.7c0-11.6 8.9-21.1 19.7-21.1h113.7c10.8 0 19.7 9.5 19.7 21.1v79.7zm0-172.7c0 11.6-8.9 21.1-19.7 21.1H658.8c-10.8 0-19.7-9.5-19.7-21.1v-79.7c0-11.6 8.9-21.1 19.7-21.1h113.7c10.8 0 19.7 9.5 19.7 21.1v79.7zm0-164.7c0 11.6-8.9 21.1-19.7 21.1H658.8c-10.8 0-19.7-9.5-19.7-21.1v-79.7c0-11.6 8.9-21.1 19.7-21.1h113.7c10.8 0 19.7 9.5 19.7 21.1v79.7zm0-230.5c0 16.6-12.7 30.2-28.1 30.2H236.3c-15.5 0-28.1-13.6-28.1-30.2V154.5c0-16.6 12.7-30.2 28.1-30.2H764c15.5 0 28.1 13.6 28.1 30.2v155.9z"/></svg>