<svg xmlns="http://www.w3.org/2000/svg" width="512" height="512" viewBox="0 0 178.546 178.546"><circle cx="37.245" cy="18.015" r="18.015"/><path d="M175.423 166.776l-12.065-27.743-3.325-32.1c1.295-1.827 2.083-4.049 2.083-6.468V47.623c0-6.186-5.023-11.207-11.207-11.207-6.189 0-11.206 5.021-11.206 11.207v3.532L123.418 73.63 93.419 80c-1.755.369-3.167 1.412-4.147 2.755-.979-1.343-2.391-2.38-4.147-2.755l-30.001-6.371-16.281-22.474v-3.532c0-6.186-5.021-11.207-11.207-11.207-6.186 0-11.208 5.021-11.208 11.207v52.843c0 2.419.786 4.641 2.084 6.476l-3.329 32.092-12.061 27.742c-1.855 4.258.101 9.209 4.354 11.063a8.346 8.346 0 0 0 3.346.703 8.408 8.408 0 0 0 7.709-5.057l12.585-28.926a8.282 8.282 0 0 0 .654-2.484l.833-8.001 3.337 7.969 5.861 29.725a8.413 8.413 0 0 0 8.237 6.778c.539 0 1.087-.05 1.636-.165 4.55-.893 7.514-5.312 6.618-9.872l-6.03-30.555a8.554 8.554 0 0 0-.492-1.62L38.222 104c.375-1.121.622-2.298.622-3.535V75.03l6.522 8.998a7.016 7.016 0 0 0 4.214 2.741l32.635 6.922c.493.11.979.159 1.46.159 2.252 0 4.299-1.144 5.598-2.915 1.3 1.771 3.346 2.915 5.598 2.915.481 0 .968-.049 1.461-.159l32.637-6.922a7.006 7.006 0 0 0 4.212-2.741l6.522-8.998v25.436c0 1.237.248 2.414.612 3.524l-13.549 32.334a8.46 8.46 0 0 0-.492 1.62l-6.03 30.556c-.893 4.558 2.068 8.979 6.621 9.871a7.96 7.96 0 0 0 1.637.164 8.411 8.411 0 0 0 8.237-6.78l5.858-29.724 3.34-7.967.83 8c.089.854.306 1.698.655 2.483l12.587 28.926a8.41 8.41 0 0 0 7.709 5.056c1.122 0 2.25-.224 3.344-.7 4.263-1.85 6.219-6.808 4.361-11.053zM141.3 0c9.95 0 18.014 8.065 18.014 18.016 0 9.949-8.063 18.014-18.014 18.014-9.954 0-18.02-8.065-18.02-18.014C123.281 8.065 131.346 0 141.3 0z"/></svg>