<svg xmlns="http://www.w3.org/2000/svg" viewBox="0 0 417.12 417.12" width="512" height="512"><path d="M409.12 200.741a8 8 0 0 0-8 8c-.06 106.525-86.464 192.831-192.988 192.772-106.525-.06-192.832-86.464-192.772-192.989C15.42 102 101.824 15.693 208.348 15.753A192.88 192.88 0 0 1 345.12 72.741l-17.84-.72a8 8 0 0 0 0 16l36.72 1.52a7.998 7.998 0 0 0 2.96-.56l.88-.56a10.081 10.081 0 0 0 3.36-3.44 8.044 8.044 0 0 0 0-1.28 7.97 7.97 0 0 0 .4-1.52l3.2-36.72a8.03 8.03 0 0 0-16-1.36l-1.6 18.16c-80.799-82.092-212.848-83.14-294.939-2.341s-83.14 212.848-2.341 294.939 212.848 83.14 294.939 2.341a208.563 208.563 0 0 0 62.261-148.459 8 8 0 0 0-8-8z"/><path d="M200.4 256.341a20.243 20.243 0 0 0-12.64-3.44h-56a60.386 60.386 0 0 1 5.2-6.96 171.507 171.507 0 0 1 22-20.32c10.667-8.747 18.293-15.147 22.88-19.2a74.636 74.636 0 0 0 13.36-16.96 45.436 45.436 0 0 0 6.56-24 43.999 43.999 0 0 0-11.92-30.08 41.823 41.823 0 0 0-13.12-9.36 68.23 68.23 0 0 0-27.52-5.28 63.988 63.988 0 0 0-23.6 4 48.808 48.808 0 0 0-16.64 10.48 43.909 43.909 0 0 0-9.84 14.48 39.987 39.987 0 0 0-3.28 15.36 12.961 12.961 0 0 0 3.52 9.6 11.998 11.998 0 0 0 8.88 3.52 11.198 11.198 0 0 0 9.2-3.84 36.42 36.42 0 0 0 5.68-10.96 53.124 53.124 0 0 1 3.6-8.72 24.88 24.88 0 0 1 21.92-12.24 25.523 25.523 0 0 1 11.76 3.12 22.561 22.561 0 0 1 8.88 8 23.195 23.195 0 0 1 3.28 12.16 30.412 30.412 0 0 1-3.04 12.8 49.35 49.35 0 0 1-8.56 13.2 94.06 94.06 0 0 1-14.56 12.4 168.175 168.175 0 0 0-16 13.76c-7.787 7.04-16.453 15.467-26 25.28a36.378 36.378 0 0 0-6.32 10 26.484 26.484 0 0 0-2.88 10.16 14.16 14.16 0 0 0 4.48 10.4 16.96 16.96 0 0 0 12.48 4.4h78.4a13.84 13.84 0 0 0 10.48-3.6 12.318 12.318 0 0 0 3.44-8.88 11.119 11.119 0 0 0-4.08-9.28zM333.76 222.901a32 32 0 0 0-13.36-2.08h-4.56v-82.48c0-12.373-5.333-18.56-16-18.56a12.08 12.08 0 0 0-8.56 3.36 85.943 85.943 0 0 0-9.12 10.8l-56.48 75.6-3.92 5.2a129.83 129.83 0 0 0-3.12 4.4 21.126 21.126 0 0 0-2.24 4.4 12.004 12.004 0 0 0-.72 4.08 15.999 15.999 0 0 0 5.04 12.48 22 22 0 0 0 15.2 4.56h53.52v20.08a17.599 17.599 0 0 0 3.6 11.84c5.276 5.346 13.887 5.403 19.233.127l.127-.127a17.679 17.679 0 0 0 3.6-11.84v-20h6.48a21.356 21.356 0 0 0 12.16-2.8 10.24 10.24 0 0 0 4.08-9.2 9.6 9.6 0 0 0-4.96-9.84zm-44.4-2.32h-45.84l45.84-61.92v61.92z"/></svg>