<svg xmlns="http://www.w3.org/2000/svg" height="1000" width="1000"><path d="M897.3 198.4H857c-6.7 0-11.8 5.3-11.8 11.8v197c0 6.7 5.3 11.8 11.8 11.8h13.7v89.5c0 6.6-5.3 11.8-11.8 11.8h-37V185.6c0-67.9-55.1-123.2-123.2-123.2H293.1c-67.9 0-123.2 55.3-123.2 123.2v328.5h-30.3c-6.6 0-11.8-5.3-11.8-11.8v-96h15c6.7 0 11.8-5.3 11.8-11.8V197.4c0-6.4-5.3-11.8-11.8-11.8h-40.5c-6.7 0-11.8 5.4-11.8 11.8v197c0 6.7 5.3 11.8 11.8 11.8h15.2v106.1c0 6.6 5.3 11.8 11.8 11.8h40.6v241.5c0 46 25.6 86.1 62.9 107.3v52.7c0 6.6 5.3 11.8 11.8 11.8h85.3c6.6 0 11.8-5.3 11.8-11.8v-36.8h304.9v36.8c0 6.6 5.3 11.8 11.8 11.8h85.3c6.6 0 11.8-5.3 11.8-11.8v-51c39.2-20.6 66-61.8 66-109.2V530.7h47.3c6.6 0 11.8-5.3 11.8-11.8v-99.8H897c6.7 0 11.8-5.4 11.8-11.8v-197c.4-6.6-4.9-11.9-11.5-11.9zM354.8 99.9c0-6.7 5.3-11.8 11.8-11.8h263.8c6.4 0 11.8 5.3 11.8 11.8V143c0 6.7-5.4 11.8-11.8 11.8H366.7c-6.7 0-11.8-5.3-11.8-11.8l-.1-43.1zm30.7 648.8c0 6.7-5.3 11.8-11.8 11.8H238.3c-6.7 0-11.8-5.3-11.8-11.8v-48.2c0-6.4 5.3-11.8 11.8-11.8h135.3c6.7 0 11.8 5.4 11.8 11.8l.1 48.2zm385 0c0 6.7-5.3 11.8-11.8 11.8H623.4c-6.7 0-11.8-5.3-11.8-11.8v-48.2c0-6.4 5.3-11.8 11.8-11.8h135.3c6.7 0 11.8 5.4 11.8 11.8v48.2zm0-219.1s-30.9 97.6-277.1 97.6c-246.6 0-272.3-97.6-272.3-97.6V190.8h549.3v338.8z"/></svg>